<svg width="216" height="64" viewBox="0 0 216 64" fill="none" xmlns="http://www.w3.org/2000/svg">
<path d="M51.5 9.47356C47.9192 5.86631 43.7392 2.66731 38.8345 1.3973C33.9299 0.12729 28.7768 0.206734 23.913 1.62734C19.0493 3.04794 14.6532 5.75762 11.1836 9.47356C7.71397 13.1895 5.29808 17.7755 4.18804 22.7528C3.078 27.7302 3.31451 32.9164 4.87288 37.7703C6.43125 42.6242 9.25436 46.9677 13.0475 50.3475C16.8407 53.7274 21.4649 56.0196 26.4375 56.985C31.41 57.9504 36.5487 57.5536 41.3171 55.8359" stroke="#476186"/>
<path d="M59.5 40.9713C58.0585 47.0836 54.6147 52.5778 49.685 56.6302C44.7552 60.6826 38.6051 63.0749 32.1565 63.4485C25.7079 63.822 19.3083 62.1567 13.9171 58.7022C8.52577 55.2477 4.43325 50.19 2.25299 44.2875C0.0727287 38.3849 -0.0778055 31.9554 1.82395 25.9628C3.72571 19.9701 7.5773 14.7373 12.8013 11.0486C18.0254 7.35988 24.3404 5.4141 30.7998 5.50291C37.2592 5.59173 43.515 7.71035 48.6293 11.5412" stroke="#8D8D8D"/>
<path d="M32.8312 5.5C27.7994 6.17064 23.0408 8.23278 19.0666 11.465C15.0923 14.6972 12.0524 18.9774 10.2733 23.846C8.49421 28.7146 8.04308 33.9877 8.96837 39.0992C9.89365 44.2106 12.1604 48.9673 15.5252 52.8586C18.8901 56.7498 23.2259 59.6286 28.0671 61.1858C32.9084 62.7431 38.0722 62.9199 43.0041 61.6974C47.9361 60.4749 52.4499 57.8992 56.0609 54.2469C59.6718 50.5945 62.2436 46.0035 63.5 40.9668" stroke="#BDBDBD"/>
<rect x="22.5" y="38.5" width="18" height="18" rx="9" fill="#426288"/>
<circle cx="31.5" cy="47.5" r="2" fill="#F4F6F3"/>
<path d="M31.56 33.58C31.1733 33.58 30.7267 33.56 30.22 33.52C30.0333 33.5067 29.7933 33.4933 29.5 33.48C29.22 33.4667 28.9067 33.46 28.56 33.46L27.2 33.48C26.96 33.4933 26.6267 33.5 26.2 33.5C26.1733 33.5 26.16 33.46 26.16 33.38C26.16 33.3 26.1733 33.26 26.2 33.26C26.7067 33.26 27.0733 33.2267 27.3 33.16C27.54 33.0933 27.7 32.9667 27.78 32.78C27.8733 32.58 27.92 32.28 27.92 31.88V22.62C27.92 22.22 27.88 21.9267 27.8 21.74C27.72 21.5533 27.56 21.4267 27.32 21.36C27.0933 21.28 26.7267 21.24 26.22 21.24C26.1933 21.24 26.18 21.2 26.18 21.12C26.18 21.04 26.1933 21 26.22 21L27.22 21.02C27.78 21.0467 28.2267 21.06 28.56 21.06C29.0667 21.06 29.5667 21.04 30.06 21C30.6467 20.9733 31.0533 20.96 31.28 20.96C32.6667 20.96 33.8933 21.2267 34.96 21.76C36.0267 22.2933 36.8533 23.02 37.44 23.94C38.04 24.86 38.34 25.8933 38.34 27.04C38.34 28.3333 38.0333 29.48 37.42 30.48C36.82 31.4667 36 32.2333 34.96 32.78C33.92 33.3133 32.7867 33.58 31.56 33.58ZM31.36 33.28C32.4267 33.28 33.3733 33.06 34.2 32.62C35.0267 32.1667 35.6667 31.5067 36.12 30.64C36.5867 29.76 36.82 28.7067 36.82 27.48C36.82 26.32 36.6 25.2667 36.16 24.32C35.72 23.3733 35.0933 22.6267 34.28 22.08C33.4667 21.5333 32.5267 21.26 31.46 21.26C30.8867 21.26 30.44 21.2933 30.12 21.36C29.8133 21.4267 29.5867 21.56 29.44 21.76C29.2933 21.96 29.22 22.26 29.22 22.66V31.66C29.22 32.06 29.2733 32.3733 29.38 32.6C29.5 32.8267 29.7133 33 30.02 33.12C30.34 33.2267 30.7867 33.28 31.36 33.28ZM50.4081 33.5C50.0748 33.5 49.4348 32.9333 48.4881 31.8C47.5548 30.6533 46.4281 29.08 45.1081 27.08L46.2281 26.74C47.3881 28.4067 48.3548 29.7067 49.1281 30.64C49.9148 31.56 50.6081 32.2267 51.2081 32.64C51.8081 33.0533 52.3948 33.26 52.9681 33.26C53.0081 33.26 53.0281 33.3 53.0281 33.38C53.0281 33.46 53.0081 33.5 52.9681 33.5H50.4081ZM45.3681 20.94C46.4215 20.94 47.2348 21.18 47.8081 21.66C48.3815 22.14 48.6681 22.78 48.6681 23.58C48.6681 24.2867 48.4615 24.9333 48.0481 25.52C47.6348 26.0933 47.0748 26.5533 46.3681 26.9C45.6748 27.2333 44.9281 27.4 44.1281 27.4C44.0481 27.4 43.7481 27.38 43.2281 27.34V31.88C43.2281 32.2933 43.2681 32.5933 43.3481 32.78C43.4281 32.9667 43.5815 33.0933 43.8081 33.16C44.0481 33.2267 44.4215 33.26 44.9281 33.26C44.9681 33.26 44.9881 33.3 44.9881 33.38C44.9881 33.46 44.9681 33.5 44.9281 33.5C44.5148 33.5 44.1881 33.4933 43.9481 33.48L42.5681 33.46L41.2081 33.48C40.9681 33.4933 40.6281 33.5 40.1881 33.5C40.1615 33.5 40.1481 33.46 40.1481 33.38C40.1481 33.3 40.1615 33.26 40.1881 33.26C40.6948 33.26 41.0681 33.2267 41.3081 33.16C41.5481 33.08 41.7148 32.9467 41.8081 32.76C41.9015 32.5733 41.9481 32.28 41.9481 31.88V22.62C41.9481 22.22 41.9015 21.9267 41.8081 21.74C41.7281 21.5533 41.5681 21.4267 41.3281 21.36C41.1015 21.28 40.7348 21.24 40.2281 21.24C40.1881 21.24 40.1681 21.2 40.1681 21.12C40.1681 21.04 40.1881 21 40.2281 21L41.2081 21.02C41.7681 21.0467 42.2215 21.06 42.5681 21.06C42.8615 21.06 43.1348 21.0533 43.3881 21.04C43.6415 21.0267 43.8548 21.0133 44.0281 21C44.5348 20.96 44.9815 20.94 45.3681 20.94ZM47.3081 24.16C47.3081 23.12 47.0748 22.3733 46.6081 21.92C46.1548 21.4667 45.4881 21.24 44.6081 21.24C44.0881 21.24 43.7281 21.3333 43.5281 21.52C43.3281 21.7067 43.2281 22.0867 43.2281 22.66V26.86C43.5481 26.9133 43.9415 26.94 44.4081 26.94C45.4481 26.94 46.1881 26.7133 46.6281 26.26C47.0815 25.8067 47.3081 25.1067 47.3081 24.16ZM54.7652 33.72C54.4985 33.72 54.2852 33.64 54.1252 33.48C53.9652 33.32 53.8852 33.1133 53.8852 32.86C53.8852 32.6067 53.9652 32.4067 54.1252 32.26C54.2852 32.1 54.4985 32.02 54.7652 32.02C55.0452 32.02 55.2585 32.0933 55.4052 32.24C55.5518 32.3867 55.6252 32.5933 55.6252 32.86C55.6252 33.1267 55.5518 33.34 55.4052 33.5C55.2585 33.6467 55.0452 33.72 54.7652 33.72ZM65.258 31.8C65.258 32.2267 65.3113 32.54 65.418 32.74C65.538 32.9267 65.758 33.06 66.078 33.14C66.4113 33.22 66.9313 33.26 67.638 33.26C67.678 33.26 67.698 33.3 67.698 33.38C67.698 33.46 67.678 33.5 67.638 33.5C67.0913 33.5 66.6646 33.4933 66.358 33.48L64.618 33.46L63.278 33.48C63.0246 33.4933 62.6846 33.5 62.258 33.5C62.2313 33.5 62.218 33.46 62.218 33.38C62.218 33.3 62.2313 33.26 62.258 33.26C62.7646 33.26 63.1313 33.2267 63.358 33.16C63.598 33.0933 63.758 32.9667 63.838 32.78C63.918 32.58 63.958 32.28 63.958 31.88V22.62C63.958 22.22 63.918 21.9267 63.838 21.74C63.758 21.5533 63.598 21.4267 63.358 21.36C63.1313 21.28 62.7646 21.24 62.258 21.24C62.2313 21.24 62.218 21.2 62.218 21.12C62.218 21.04 62.2313 21 62.258 21L63.258 21.02C63.818 21.0467 64.2646 21.06 64.598 21.06C64.9313 21.06 65.3046 21.04 65.718 21C65.878 21 66.1313 20.9933 66.478 20.98C66.8246 20.9533 67.1246 20.94 67.378 20.94C68.6046 20.94 69.5846 21.2133 70.318 21.76C71.0646 22.3067 71.438 23.14 71.438 24.26C71.438 25.14 71.218 25.88 70.778 26.48C70.3513 27.08 69.798 27.5267 69.118 27.82C68.438 28.1133 67.738 28.26 67.018 28.26C66.6313 28.26 66.3113 28.2267 66.058 28.16C66.018 28.16 65.998 28.1267 65.998 28.06C65.998 28.02 66.0046 27.98 66.018 27.94C66.0446 27.9 66.0713 27.8867 66.098 27.9C66.3113 27.9533 66.5513 27.98 66.818 27.98C67.698 27.98 68.438 27.6933 69.038 27.12C69.6513 26.5467 69.958 25.72 69.958 24.64C69.958 23.5867 69.6713 22.76 69.098 22.16C68.5246 21.5467 67.7913 21.24 66.898 21.24C66.418 21.24 66.0713 21.2667 65.858 21.32C65.6446 21.3733 65.4913 21.5 65.398 21.7C65.3046 21.8867 65.258 22.2067 65.258 22.66V31.8ZM75.4784 27.6H80.7784L80.9184 28H75.2784L75.4784 27.6ZM85.3784 33.26C85.4318 33.26 85.4584 33.3 85.4584 33.38C85.4584 33.46 85.4318 33.5 85.3784 33.5C85.1251 33.5 84.7318 33.4867 84.1984 33.46C83.6651 33.4333 83.2784 33.42 83.0384 33.42C82.7451 33.42 82.3718 33.4333 81.9184 33.46C81.4918 33.4867 81.1651 33.5 80.9384 33.5C80.8851 33.5 80.8584 33.46 80.8584 33.38C80.8584 33.3 80.8851 33.26 80.9384 33.26C81.4451 33.26 81.8051 33.2133 82.0184 33.12C82.2451 33.0267 82.3584 32.86 82.3584 32.62C82.3584 32.42 82.2784 32.14 82.1184 31.78L77.6784 22.4L78.1784 21.78L74.2984 30.96C74.1118 31.4133 74.0184 31.7867 74.0184 32.08C74.0184 32.8667 74.6718 33.26 75.9784 33.26C76.0451 33.26 76.0784 33.3 76.0784 33.38C76.0784 33.46 76.0451 33.5 75.9784 33.5C75.7384 33.5 75.3918 33.4867 74.9384 33.46C74.4318 33.4333 73.9918 33.42 73.6184 33.42C73.2718 33.42 72.8718 33.4333 72.4184 33.46C72.0184 33.4867 71.6851 33.5 71.4184 33.5C71.3518 33.5 71.3184 33.46 71.3184 33.38C71.3184 33.3 71.3518 33.26 71.4184 33.26C71.7918 33.26 72.1051 33.1933 72.3584 33.06C72.6251 32.9133 72.8718 32.6667 73.0984 32.32C73.3384 31.96 73.5984 31.4467 73.8784 30.78L78.0984 20.82C78.1251 20.78 78.1718 20.76 78.2384 20.76C78.3051 20.76 78.3451 20.78 78.3584 20.82L83.0784 30.76C83.5318 31.7467 83.9184 32.4133 84.2384 32.76C84.5584 33.0933 84.9384 33.26 85.3784 33.26ZM96.1783 23.2C96.1783 21.8933 95.5983 21.24 94.4383 21.24C94.3983 21.24 94.3783 21.2 94.3783 21.12C94.3783 21.04 94.3983 21 94.4383 21L95.2983 21.02C95.7783 21.0467 96.1583 21.06 96.4383 21.06C96.6649 21.06 96.9916 21.0467 97.4183 21.02L98.2583 21C98.2849 21 98.2983 21.04 98.2983 21.12C98.2983 21.2 98.2849 21.24 98.2583 21.24C97.1916 21.24 96.6583 21.8933 96.6583 23.2V28.88C96.6583 30.4133 96.2316 31.6133 95.3783 32.48C94.5249 33.3333 93.3783 33.76 91.9383 33.76C90.9516 33.76 90.0849 33.5667 89.3383 33.18C88.6049 32.7933 88.0316 32.2467 87.6183 31.54C87.2183 30.82 87.0183 29.98 87.0183 29.02V22.62C87.0183 22.22 86.9783 21.9267 86.8983 21.74C86.8183 21.5533 86.6583 21.4267 86.4183 21.36C86.1916 21.28 85.8249 21.24 85.3183 21.24C85.2916 21.24 85.2783 21.2 85.2783 21.12C85.2783 21.04 85.2916 21 85.3183 21L86.2983 21.02C86.8583 21.0467 87.3116 21.06 87.6583 21.06C88.0183 21.06 88.4916 21.0467 89.0783 21.02L89.9983 21C90.0383 21 90.0583 21.04 90.0583 21.12C90.0583 21.2 90.0383 21.24 89.9983 21.24C89.5049 21.24 89.1383 21.28 88.8983 21.36C88.6716 21.44 88.5183 21.58 88.4383 21.78C88.3583 21.9667 88.3183 22.26 88.3183 22.66V28.32C88.3183 29.8933 88.6716 31.0933 89.3783 31.92C90.0849 32.7467 91.0849 33.16 92.3783 33.16C93.5783 33.16 94.5116 32.7867 95.1783 32.04C95.8449 31.28 96.1783 30.2333 96.1783 28.9V23.2ZM102.403 31.8C102.403 32.1867 102.443 32.4667 102.523 32.64C102.603 32.8133 102.75 32.9333 102.963 33C103.176 33.0533 103.523 33.08 104.003 33.08H106.183C106.943 33.08 107.55 32.8467 108.003 32.38C108.456 31.9133 108.756 31.2667 108.903 30.44C108.903 30.4 108.936 30.3867 109.003 30.4C109.083 30.4 109.123 30.42 109.123 30.46C109.003 31.5667 108.943 32.48 108.943 33.2C108.943 33.3067 108.923 33.3867 108.883 33.44C108.843 33.48 108.763 33.5 108.643 33.5H99.4031C99.3765 33.5 99.3631 33.46 99.3631 33.38C99.3631 33.3 99.3765 33.26 99.4031 33.26C99.9098 33.26 100.276 33.2267 100.503 33.16C100.743 33.0933 100.903 32.9667 100.983 32.78C101.063 32.58 101.103 32.28 101.103 31.88V22.62C101.103 22.22 101.063 21.9267 100.983 21.74C100.903 21.5533 100.743 21.4267 100.503 21.36C100.276 21.28 99.9098 21.24 99.4031 21.24C99.3765 21.24 99.3631 21.2 99.3631 21.12C99.3631 21.04 99.3765 21 99.4031 21L100.383 21.02C100.943 21.0467 101.396 21.06 101.743 21.06C102.116 21.06 102.583 21.0467 103.143 21.02L104.103 21C104.143 21 104.163 21.04 104.163 21.12C104.163 21.2 104.143 21.24 104.103 21.24C103.61 21.24 103.243 21.28 103.003 21.36C102.763 21.4267 102.603 21.56 102.523 21.76C102.443 21.9467 102.403 22.24 102.403 22.64V31.8ZM116.687 33.74C115.447 33.74 114.341 33.4533 113.367 32.88C112.407 32.2933 111.661 31.5067 111.127 30.52C110.607 29.52 110.347 28.4333 110.347 27.26C110.347 25.8867 110.694 24.7133 111.387 23.74C112.081 22.7533 112.967 22.0133 114.047 21.52C115.141 21.0267 116.254 20.78 117.387 20.78C118.654 20.78 119.767 21.08 120.727 21.68C121.687 22.2667 122.421 23.0467 122.927 24.02C123.447 24.9933 123.707 26.0267 123.707 27.12C123.707 28.3333 123.387 29.4467 122.747 30.46C122.107 31.4733 121.247 32.2733 120.167 32.86C119.101 33.4467 117.941 33.74 116.687 33.74ZM117.387 33.32C118.294 33.32 119.107 33.1 119.827 32.66C120.561 32.22 121.134 31.58 121.547 30.74C121.974 29.8867 122.187 28.8667 122.187 27.68C122.187 26.4267 121.954 25.3133 121.487 24.34C121.021 23.3667 120.361 22.6067 119.507 22.06C118.667 21.5133 117.681 21.24 116.547 21.24C115.081 21.24 113.934 21.7133 113.107 22.66C112.281 23.6067 111.867 24.9067 111.867 26.56C111.867 27.8133 112.101 28.96 112.567 30C113.034 31.0267 113.687 31.84 114.527 32.44C115.367 33.0267 116.321 33.32 117.387 33.32ZM142.747 21C142.787 21 142.807 21.04 142.807 21.12C142.807 21.2 142.787 21.24 142.747 21.24C142.294 21.24 141.901 21.36 141.567 21.6C141.234 21.84 140.954 22.2467 140.727 22.82L136.467 33.48C136.454 33.5333 136.381 33.56 136.247 33.56C136.141 33.56 136.067 33.5333 136.027 33.48L131.047 22.66C130.821 22.14 130.581 21.7733 130.327 21.56C130.074 21.3467 129.747 21.24 129.347 21.24C129.307 21.24 129.287 21.2 129.287 21.12C129.287 21.04 129.307 21 129.347 21L130.107 21.02C130.481 21.0467 130.781 21.06 131.007 21.06C131.527 21.06 132.094 21.0467 132.707 21.02L133.547 21C133.587 21 133.607 21.04 133.607 21.12C133.607 21.2 133.587 21.24 133.547 21.24C132.721 21.24 132.307 21.4667 132.307 21.92C132.307 22.0933 132.367 22.3133 132.487 22.58L136.807 32.04L136.187 32.96L140.267 22.7C140.374 22.4467 140.427 22.2333 140.427 22.06C140.427 21.78 140.301 21.5733 140.047 21.44C139.794 21.3067 139.401 21.24 138.867 21.24C138.827 21.24 138.807 21.2 138.807 21.12C138.807 21.04 138.827 21 138.867 21L139.727 21.02C140.181 21.0467 140.594 21.06 140.967 21.06C141.247 21.06 141.561 21.0467 141.907 21.02L142.747 21ZM145.068 27.6H150.368L150.508 28H144.868L145.068 27.6ZM154.968 33.26C155.022 33.26 155.048 33.3 155.048 33.38C155.048 33.46 155.022 33.5 154.968 33.5C154.715 33.5 154.322 33.4867 153.788 33.46C153.255 33.4333 152.868 33.42 152.628 33.42C152.335 33.42 151.962 33.4333 151.508 33.46C151.082 33.4867 150.755 33.5 150.528 33.5C150.475 33.5 150.448 33.46 150.448 33.38C150.448 33.3 150.475 33.26 150.528 33.26C151.035 33.26 151.395 33.2133 151.608 33.12C151.835 33.0267 151.948 32.86 151.948 32.62C151.948 32.42 151.868 32.14 151.708 31.78L147.268 22.4L147.768 21.78L143.888 30.96C143.702 31.4133 143.608 31.7867 143.608 32.08C143.608 32.8667 144.262 33.26 145.568 33.26C145.635 33.26 145.668 33.3 145.668 33.38C145.668 33.46 145.635 33.5 145.568 33.5C145.328 33.5 144.982 33.4867 144.528 33.46C144.022 33.4333 143.582 33.42 143.208 33.42C142.862 33.42 142.462 33.4333 142.008 33.46C141.608 33.4867 141.275 33.5 141.008 33.5C140.942 33.5 140.908 33.46 140.908 33.38C140.908 33.3 140.942 33.26 141.008 33.26C141.382 33.26 141.695 33.1933 141.948 33.06C142.215 32.9133 142.462 32.6667 142.688 32.32C142.928 31.96 143.188 31.4467 143.468 30.78L147.688 20.82C147.715 20.78 147.762 20.76 147.828 20.76C147.895 20.76 147.935 20.78 147.948 20.82L152.668 30.76C153.122 31.7467 153.508 32.4133 153.828 32.76C154.148 33.0933 154.528 33.26 154.968 33.26ZM157.931 23.34C157.931 23.86 158.058 24.3133 158.311 24.7C158.565 25.0867 158.871 25.4133 159.231 25.68C159.591 25.9333 160.098 26.26 160.751 26.66C161.445 27.0733 161.985 27.42 162.371 27.7C162.758 27.98 163.085 28.34 163.351 28.78C163.631 29.2067 163.771 29.72 163.771 30.32C163.771 30.96 163.611 31.54 163.291 32.06C162.971 32.58 162.498 32.9933 161.871 33.3C161.258 33.5933 160.518 33.74 159.651 33.74C158.625 33.74 157.685 33.5067 156.831 33.04C156.765 33 156.718 32.9533 156.691 32.9C156.678 32.8467 156.665 32.7667 156.651 32.66L156.391 29.94C156.378 29.8867 156.405 29.8533 156.471 29.84C156.551 29.8267 156.598 29.8467 156.611 29.9C156.811 30.8467 157.205 31.6733 157.791 32.38C158.378 33.0733 159.151 33.42 160.111 33.42C160.778 33.42 161.338 33.24 161.791 32.88C162.258 32.5067 162.491 31.92 162.491 31.12C162.491 30.52 162.358 30 162.091 29.56C161.825 29.12 161.498 28.76 161.111 28.48C160.738 28.1867 160.225 27.8467 159.571 27.46C158.931 27.0733 158.425 26.74 158.051 26.46C157.691 26.18 157.385 25.8267 157.131 25.4C156.878 24.9733 156.751 24.4733 156.751 23.9C156.751 23.2333 156.925 22.6667 157.271 22.2C157.631 21.72 158.091 21.3667 158.651 21.14C159.225 20.9 159.831 20.78 160.471 20.78C161.258 20.78 162.038 20.94 162.811 21.26C163.011 21.3267 163.111 21.44 163.111 21.6L163.251 23.88C163.251 23.9467 163.211 23.98 163.131 23.98C163.065 23.98 163.025 23.9533 163.011 23.9C162.918 23.2067 162.638 22.5667 162.171 21.98C161.705 21.38 161.031 21.08 160.151 21.08C159.405 21.08 158.845 21.3 158.471 21.74C158.111 22.1667 157.931 22.7 157.931 23.34ZM170.695 33.26C171.522 33.4067 172.242 33.48 172.855 33.48C173.175 33.48 173.515 33.46 173.875 33.42C175.075 34.2067 176.575 34.94 178.375 35.62C180.175 36.3133 182.049 36.86 183.995 37.26C185.955 37.6733 187.762 37.88 189.415 37.88C191.255 37.88 192.715 37.7133 193.795 37.38C193.822 37.3667 193.849 37.3933 193.875 37.46C193.902 37.54 193.895 37.5867 193.855 37.6C193.202 37.8133 192.462 38 191.635 38.16C190.809 38.32 189.722 38.4 188.375 38.4C182.922 38.4 177.029 36.6867 170.695 33.26ZM172.175 33.74C170.935 33.74 169.829 33.4533 168.855 32.88C167.895 32.2933 167.149 31.5067 166.615 30.52C166.095 29.52 165.835 28.4333 165.835 27.26C165.835 25.8867 166.182 24.7133 166.875 23.74C167.569 22.7533 168.455 22.0133 169.535 21.52C170.629 21.0267 171.742 20.78 172.875 20.78C174.142 20.78 175.255 21.08 176.215 21.68C177.175 22.2667 177.909 23.0467 178.415 24.02C178.935 24.9933 179.195 26.0267 179.195 27.12C179.195 28.3333 178.875 29.4467 178.235 30.46C177.595 31.4733 176.735 32.2733 175.655 32.86C174.589 33.4467 173.429 33.74 172.175 33.74ZM172.875 33.32C173.782 33.32 174.595 33.1 175.315 32.66C176.049 32.22 176.622 31.58 177.035 30.74C177.462 29.8867 177.675 28.8667 177.675 27.68C177.675 26.4267 177.442 25.3133 176.975 24.34C176.509 23.3667 175.849 22.6067 174.995 22.06C174.155 21.5133 173.169 21.24 172.035 21.24C170.569 21.24 169.422 21.7133 168.595 22.66C167.769 23.6067 167.355 24.9067 167.355 26.56C167.355 27.8133 167.589 28.96 168.055 30C168.522 31.0267 169.175 31.84 170.015 32.44C170.855 33.0267 171.809 33.32 172.875 33.32ZM191.608 23.2C191.608 21.8933 191.028 21.24 189.868 21.24C189.828 21.24 189.808 21.2 189.808 21.12C189.808 21.04 189.828 21 189.868 21L190.728 21.02C191.208 21.0467 191.588 21.06 191.868 21.06C192.095 21.06 192.421 21.0467 192.848 21.02L193.688 21C193.715 21 193.728 21.04 193.728 21.12C193.728 21.2 193.715 21.24 193.688 21.24C192.621 21.24 192.088 21.8933 192.088 23.2V28.88C192.088 30.4133 191.661 31.6133 190.808 32.48C189.955 33.3333 188.808 33.76 187.368 33.76C186.381 33.76 185.515 33.5667 184.768 33.18C184.035 32.7933 183.461 32.2467 183.048 31.54C182.648 30.82 182.448 29.98 182.448 29.02V22.62C182.448 22.22 182.408 21.9267 182.328 21.74C182.248 21.5533 182.088 21.4267 181.848 21.36C181.621 21.28 181.255 21.24 180.748 21.24C180.721 21.24 180.708 21.2 180.708 21.12C180.708 21.04 180.721 21 180.748 21L181.728 21.02C182.288 21.0467 182.741 21.06 183.088 21.06C183.448 21.06 183.921 21.0467 184.508 21.02L185.428 21C185.468 21 185.488 21.04 185.488 21.12C185.488 21.2 185.468 21.24 185.428 21.24C184.935 21.24 184.568 21.28 184.328 21.36C184.101 21.44 183.948 21.58 183.868 21.78C183.788 21.9667 183.748 22.26 183.748 22.66V28.32C183.748 29.8933 184.101 31.0933 184.808 31.92C185.515 32.7467 186.515 33.16 187.808 33.16C189.008 33.16 189.941 32.7867 190.608 32.04C191.275 31.28 191.608 30.2333 191.608 28.9V23.2ZM194.993 33.5C194.966 33.5 194.953 33.46 194.953 33.38C194.953 33.3 194.966 33.26 194.993 33.26C195.499 33.26 195.866 33.2267 196.093 33.16C196.333 33.0933 196.493 32.9667 196.573 32.78C196.666 32.58 196.713 32.28 196.713 31.88V22.62C196.713 22.22 196.666 21.9267 196.573 21.74C196.493 21.5533 196.333 21.4267 196.093 21.36C195.866 21.28 195.499 21.24 194.993 21.24C194.966 21.24 194.953 21.2 194.953 21.12C194.953 21.04 194.966 21 194.993 21H203.033C203.153 21 203.213 21.06 203.213 21.18L203.253 23.64C203.253 23.68 203.213 23.7067 203.133 23.72C203.066 23.72 203.033 23.7 203.033 23.66C202.993 22.9533 202.779 22.4067 202.393 22.02C202.006 21.62 201.493 21.42 200.853 21.42H199.633C199.166 21.42 198.819 21.46 198.593 21.54C198.366 21.6067 198.206 21.7267 198.113 21.9C198.033 22.0733 197.993 22.3467 197.993 22.72V31.8C197.993 32.16 198.033 32.4333 198.113 32.62C198.206 32.7933 198.359 32.9133 198.573 32.98C198.786 33.0467 199.119 33.08 199.573 33.08H201.173C201.813 33.08 202.346 32.8533 202.773 32.4C203.199 31.9467 203.486 31.32 203.633 30.52C203.633 30.4933 203.659 30.48 203.713 30.48C203.753 30.48 203.786 30.4933 203.813 30.52C203.853 30.5333 203.873 30.5467 203.873 30.56C203.753 31.4 203.693 32.28 203.693 33.2C203.693 33.3067 203.666 33.3867 203.613 33.44C203.573 33.48 203.493 33.5 203.373 33.5H194.993ZM202.253 28.84C202.253 28.2533 202.106 27.8333 201.813 27.58C201.533 27.3267 201.059 27.2 200.393 27.2H197.393V26.78H200.453C201.093 26.78 201.546 26.6733 201.813 26.46C202.093 26.2467 202.233 25.8867 202.233 25.38C202.233 25.3533 202.273 25.34 202.353 25.34C202.433 25.34 202.473 25.3533 202.473 25.38L202.453 27C202.453 27.3867 202.459 27.68 202.473 27.88L202.493 28.84C202.493 28.8667 202.453 28.88 202.373 28.88C202.293 28.88 202.253 28.8667 202.253 28.84ZM207.775 23.34C207.775 23.86 207.902 24.3133 208.155 24.7C208.408 25.0867 208.715 25.4133 209.075 25.68C209.435 25.9333 209.942 26.26 210.595 26.66C211.288 27.0733 211.828 27.42 212.215 27.7C212.602 27.98 212.928 28.34 213.195 28.78C213.475 29.2067 213.615 29.72 213.615 30.32C213.615 30.96 213.455 31.54 213.135 32.06C212.815 32.58 212.342 32.9933 211.715 33.3C211.102 33.5933 210.362 33.74 209.495 33.74C208.468 33.74 207.528 33.5067 206.675 33.04C206.608 33 206.562 32.9533 206.535 32.9C206.522 32.8467 206.508 32.7667 206.495 32.66L206.235 29.94C206.222 29.8867 206.248 29.8533 206.315 29.84C206.395 29.8267 206.442 29.8467 206.455 29.9C206.655 30.8467 207.048 31.6733 207.635 32.38C208.222 33.0733 208.995 33.42 209.955 33.42C210.622 33.42 211.182 33.24 211.635 32.88C212.102 32.5067 212.335 31.92 212.335 31.12C212.335 30.52 212.202 30 211.935 29.56C211.668 29.12 211.342 28.76 210.955 28.48C210.582 28.1867 210.068 27.8467 209.415 27.46C208.775 27.0733 208.268 26.74 207.895 26.46C207.535 26.18 207.228 25.8267 206.975 25.4C206.722 24.9733 206.595 24.4733 206.595 23.9C206.595 23.2333 206.768 22.6667 207.115 22.2C207.475 21.72 207.935 21.3667 208.495 21.14C209.068 20.9 209.675 20.78 210.315 20.78C211.102 20.78 211.882 20.94 212.655 21.26C212.855 21.3267 212.955 21.44 212.955 21.6L213.095 23.88C213.095 23.9467 213.055 23.98 212.975 23.98C212.908 23.98 212.868 23.9533 212.855 23.9C212.762 23.2067 212.482 22.5667 212.015 21.98C211.548 21.38 210.875 21.08 209.995 21.08C209.248 21.08 208.688 21.3 208.315 21.74C207.955 22.1667 207.775 22.7 207.775 23.34Z" fill="#626262"/>
<path d="M69.532 39.684L69.724 39.7L69.644 43.628C69.6387 43.9107 69.6867 44.1107 69.788 44.228C69.8893 44.3453 70.068 44.404 70.324 44.404C70.3347 44.404 70.34 44.42 70.34 44.452C70.34 44.484 70.3347 44.5 70.324 44.5C70.1747 44.5 70.06 44.4973 69.98 44.492L69.548 44.484L69.132 44.492C69.0573 44.4973 68.9507 44.5 68.812 44.5C68.8013 44.5 68.796 44.484 68.796 44.452C68.796 44.42 68.8013 44.404 68.812 44.404C69.036 44.404 69.196 44.3453 69.292 44.228C69.3933 44.1053 69.4467 43.9053 69.452 43.628L69.532 39.684ZM74.996 44.404C75.012 44.404 75.02 44.42 75.02 44.452C75.02 44.484 75.012 44.5 74.996 44.5C74.8307 44.5 74.7 44.4973 74.604 44.492L74.052 44.484L73.54 44.492C73.4547 44.4973 73.3347 44.5 73.18 44.5C73.1693 44.5 73.164 44.484 73.164 44.452C73.164 44.42 73.1693 44.404 73.18 44.404C73.3613 44.404 73.4947 44.3907 73.58 44.364C73.6707 44.332 73.7293 44.2787 73.756 44.204C73.788 44.1293 73.7987 44.012 73.788 43.852L73.636 39.988L73.9 39.62L71.82 44.444C71.8093 44.4653 71.788 44.476 71.756 44.476C71.7293 44.476 71.7053 44.4653 71.684 44.444L69.676 40.164C69.5853 39.9667 69.4733 39.8227 69.34 39.732C69.212 39.6413 69.0547 39.596 68.868 39.596C68.8573 39.596 68.852 39.58 68.852 39.548C68.852 39.516 68.8573 39.5 68.868 39.5L69.164 39.508C69.2173 39.5133 69.292 39.516 69.388 39.516C69.484 39.516 69.564 39.5133 69.628 39.508C69.6973 39.5027 69.7507 39.5 69.788 39.5C69.8573 39.5 69.9133 39.5267 69.956 39.58C70.004 39.628 70.0707 39.74 70.156 39.916L71.98 43.756L71.732 44.172L73.684 39.7C73.7427 39.5667 73.8227 39.5 73.924 39.5C73.9507 39.5 73.988 39.5027 74.036 39.508C74.0893 39.5133 74.1587 39.516 74.244 39.516L74.62 39.508C74.6787 39.5027 74.7667 39.5 74.884 39.5C74.8947 39.5 74.9 39.516 74.9 39.548C74.9 39.58 74.8947 39.596 74.884 39.596C74.612 39.596 74.4173 39.636 74.3 39.716C74.188 39.7907 74.1373 39.9347 74.148 40.148L74.308 43.852C74.3133 44.0173 74.332 44.1373 74.364 44.212C74.4013 44.2867 74.4653 44.3373 74.556 44.364C74.6467 44.3907 74.7933 44.404 74.996 44.404ZM77.7717 42.14H79.8917L79.9477 42.3H77.6917L77.7717 42.14ZM81.7317 44.404C81.753 44.404 81.7637 44.42 81.7637 44.452C81.7637 44.484 81.753 44.5 81.7317 44.5C81.6304 44.5 81.473 44.4947 81.2597 44.484C81.0464 44.4733 80.8917 44.468 80.7957 44.468C80.6784 44.468 80.529 44.4733 80.3477 44.484C80.177 44.4947 80.0464 44.5 79.9557 44.5C79.9344 44.5 79.9237 44.484 79.9237 44.452C79.9237 44.42 79.9344 44.404 79.9557 44.404C80.1584 44.404 80.3024 44.3853 80.3877 44.348C80.4784 44.3107 80.5237 44.244 80.5237 44.148C80.5237 44.068 80.4917 43.956 80.4277 43.812L78.6517 40.06L78.8517 39.812L77.2997 43.484C77.225 43.6653 77.1877 43.8147 77.1877 43.932C77.1877 44.2467 77.449 44.404 77.9717 44.404C77.9984 44.404 78.0117 44.42 78.0117 44.452C78.0117 44.484 77.9984 44.5 77.9717 44.5C77.8757 44.5 77.737 44.4947 77.5557 44.484C77.353 44.4733 77.177 44.468 77.0277 44.468C76.889 44.468 76.729 44.4733 76.5477 44.484C76.3877 44.4947 76.2544 44.5 76.1477 44.5C76.121 44.5 76.1077 44.484 76.1077 44.452C76.1077 44.42 76.121 44.404 76.1477 44.404C76.297 44.404 76.4224 44.3773 76.5237 44.324C76.6304 44.2653 76.729 44.1667 76.8197 44.028C76.9157 43.884 77.0197 43.6787 77.1317 43.412L78.8197 39.428C78.8304 39.412 78.849 39.404 78.8757 39.404C78.9024 39.404 78.9184 39.412 78.9237 39.428L80.8117 43.404C80.993 43.7987 81.1477 44.0653 81.2757 44.204C81.4037 44.3373 81.5557 44.404 81.7317 44.404ZM83.8769 40.436C83.8769 40.644 83.9275 40.8253 84.0289 40.98C84.1302 41.1347 84.2529 41.2653 84.3969 41.372C84.5409 41.4733 84.7435 41.604 85.0049 41.764C85.2822 41.9293 85.4982 42.068 85.6529 42.18C85.8075 42.292 85.9382 42.436 86.0449 42.612C86.1569 42.7827 86.2129 42.988 86.2129 43.228C86.2129 43.484 86.1489 43.716 86.0209 43.924C85.8929 44.132 85.7035 44.2973 85.4529 44.42C85.2075 44.5373 84.9115 44.596 84.5649 44.596C84.1542 44.596 83.7782 44.5027 83.4369 44.316C83.4102 44.3 83.3915 44.2813 83.3809 44.26C83.3755 44.2387 83.3702 44.2067 83.3649 44.164L83.2609 43.076C83.2555 43.0547 83.2662 43.0413 83.2929 43.036C83.3249 43.0307 83.3435 43.0387 83.3489 43.06C83.4289 43.4387 83.5862 43.7693 83.8209 44.052C84.0555 44.3293 84.3649 44.468 84.7489 44.468C85.0155 44.468 85.2395 44.396 85.4209 44.252C85.6075 44.1027 85.7009 43.868 85.7009 43.548C85.7009 43.308 85.6475 43.1 85.5409 42.924C85.4342 42.748 85.3035 42.604 85.1489 42.492C84.9995 42.3747 84.7942 42.2387 84.5329 42.084C84.2769 41.9293 84.0742 41.796 83.9249 41.684C83.7809 41.572 83.6582 41.4307 83.5569 41.26C83.4555 41.0893 83.4049 40.8893 83.4049 40.66C83.4049 40.3933 83.4742 40.1667 83.6129 39.98C83.7569 39.788 83.9409 39.6467 84.1649 39.556C84.3942 39.46 84.6369 39.412 84.8929 39.412C85.2075 39.412 85.5195 39.476 85.8289 39.604C85.9089 39.6307 85.9489 39.676 85.9489 39.74L86.0049 40.652C86.0049 40.6787 85.9889 40.692 85.9569 40.692C85.9302 40.692 85.9142 40.6813 85.9089 40.66C85.8715 40.3827 85.7595 40.1267 85.5729 39.892C85.3862 39.652 85.1169 39.532 84.7649 39.532C84.4662 39.532 84.2422 39.62 84.0929 39.796C83.9489 39.9667 83.8769 40.18 83.8769 40.436ZM89.1106 39.644C88.7799 39.644 88.5292 39.7293 88.3586 39.9C88.1932 40.0707 88.0732 40.3613 87.9986 40.772C87.9986 40.7827 87.9826 40.788 87.9506 40.788C87.9239 40.788 87.9106 40.7827 87.9106 40.772C87.9319 40.58 87.9559 40.3293 87.9826 40.02C88.0092 39.7107 88.0226 39.4787 88.0226 39.324C88.0226 39.2973 88.0359 39.284 88.0626 39.284C88.0946 39.284 88.1106 39.2973 88.1106 39.324C88.1106 39.4413 88.2546 39.5 88.5426 39.5C89.0012 39.516 89.5372 39.524 90.1506 39.524C90.4652 39.524 90.7986 39.5187 91.1506 39.508L91.6946 39.5C91.8866 39.5 92.0279 39.4867 92.1186 39.46C92.2146 39.4333 92.2759 39.38 92.3026 39.3C92.3079 39.2787 92.3239 39.268 92.3506 39.268C92.3772 39.268 92.3906 39.2787 92.3906 39.3C92.3746 39.4547 92.3586 39.6893 92.3426 40.004C92.3266 40.3187 92.3186 40.5747 92.3186 40.772C92.3186 40.7827 92.3026 40.788 92.2706 40.788C92.2386 40.788 92.2226 40.7827 92.2226 40.772C92.2066 40.356 92.1212 40.0653 91.9666 39.9C91.8119 39.7293 91.5559 39.644 91.1986 39.644C90.9586 39.644 90.7879 39.6547 90.6866 39.676C90.5852 39.6973 90.5159 39.7427 90.4786 39.812C90.4412 39.8813 90.4226 39.9987 90.4226 40.164V43.852C90.4226 44.0173 90.4412 44.1373 90.4786 44.212C90.5159 44.2867 90.5879 44.3373 90.6946 44.364C90.8012 44.3907 90.9692 44.404 91.1986 44.404C91.2146 44.404 91.2226 44.42 91.2226 44.452C91.2226 44.484 91.2146 44.5 91.1986 44.5C91.0226 44.5 90.8812 44.4973 90.7746 44.492L90.1506 44.484L89.5506 44.492C89.4439 44.4973 89.2972 44.5 89.1106 44.5C89.0999 44.5 89.0946 44.484 89.0946 44.452C89.0946 44.42 89.0999 44.404 89.1106 44.404C89.3399 44.404 89.5079 44.3907 89.6146 44.364C89.7212 44.3373 89.7932 44.2867 89.8306 44.212C89.8732 44.132 89.8946 44.012 89.8946 43.852V40.148C89.8946 39.9827 89.8759 39.868 89.8386 39.804C89.8012 39.7347 89.7319 39.692 89.6306 39.676C89.5292 39.6547 89.3559 39.644 89.1106 39.644ZM96.4633 44.596C95.9673 44.596 95.5246 44.4813 95.1353 44.252C94.7513 44.0173 94.4526 43.7027 94.2393 43.308C94.0313 42.908 93.9273 42.4733 93.9273 42.004C93.9273 41.4547 94.066 40.9853 94.3433 40.596C94.6206 40.2013 94.9753 39.9053 95.4073 39.708C95.8446 39.5107 96.29 39.412 96.7433 39.412C97.25 39.412 97.6953 39.532 98.0793 39.772C98.4633 40.0067 98.7566 40.3187 98.9593 40.708C99.1673 41.0973 99.2713 41.5107 99.2713 41.948C99.2713 42.4333 99.1433 42.8787 98.8873 43.284C98.6313 43.6893 98.2873 44.0093 97.8553 44.244C97.4286 44.4787 96.9646 44.596 96.4633 44.596ZM96.7433 44.428C97.106 44.428 97.4313 44.34 97.7193 44.164C98.0126 43.988 98.242 43.732 98.4073 43.396C98.578 43.0547 98.6633 42.6467 98.6633 42.172C98.6633 41.6707 98.57 41.2253 98.3833 40.836C98.1966 40.4467 97.9326 40.1427 97.5913 39.924C97.2553 39.7053 96.8606 39.596 96.4073 39.596C95.8206 39.596 95.362 39.7853 95.0313 40.164C94.7006 40.5427 94.5353 41.0627 94.5353 41.724C94.5353 42.2253 94.6286 42.684 94.8153 43.1C95.002 43.5107 95.2633 43.836 95.5993 44.076C95.9353 44.3107 96.3166 44.428 96.7433 44.428ZM102.1 43.82C102.1 43.9747 102.116 44.0867 102.148 44.156C102.18 44.2253 102.239 44.2733 102.324 44.3C102.41 44.3213 102.548 44.332 102.74 44.332H103.612C103.916 44.332 104.159 44.2387 104.34 44.052C104.522 43.8653 104.642 43.6067 104.7 43.276C104.7 43.26 104.714 43.2547 104.74 43.26C104.772 43.26 104.788 43.268 104.788 43.284C104.74 43.7267 104.716 44.092 104.716 44.38C104.716 44.4227 104.708 44.4547 104.692 44.476C104.676 44.492 104.644 44.5 104.596 44.5H100.9C100.89 44.5 100.884 44.484 100.884 44.452C100.884 44.42 100.89 44.404 100.9 44.404C101.103 44.404 101.25 44.3907 101.34 44.364C101.436 44.3373 101.5 44.2867 101.532 44.212C101.564 44.132 101.58 44.012 101.58 43.852V40.148C101.58 39.988 101.564 39.8707 101.532 39.796C101.5 39.7213 101.436 39.6707 101.34 39.644C101.25 39.612 101.103 39.596 100.9 39.596C100.89 39.596 100.884 39.58 100.884 39.548C100.884 39.516 100.89 39.5 100.9 39.5L101.292 39.508C101.516 39.5187 101.698 39.524 101.836 39.524C101.986 39.524 102.172 39.5187 102.396 39.508L102.78 39.5C102.796 39.5 102.804 39.516 102.804 39.548C102.804 39.58 102.796 39.596 102.78 39.596C102.583 39.596 102.436 39.612 102.34 39.644C102.244 39.6707 102.18 39.724 102.148 39.804C102.116 39.8787 102.1 39.996 102.1 40.156V43.82ZM108.774 44.596C108.278 44.596 107.835 44.4813 107.446 44.252C107.062 44.0173 106.763 43.7027 106.55 43.308C106.342 42.908 106.238 42.4733 106.238 42.004C106.238 41.4547 106.377 40.9853 106.654 40.596C106.931 40.2013 107.286 39.9053 107.718 39.708C108.155 39.5107 108.601 39.412 109.054 39.412C109.561 39.412 110.006 39.532 110.39 39.772C110.774 40.0067 111.067 40.3187 111.27 40.708C111.478 41.0973 111.582 41.5107 111.582 41.948C111.582 42.4333 111.454 42.8787 111.198 43.284C110.942 43.6893 110.598 44.0093 110.166 44.244C109.739 44.4787 109.275 44.596 108.774 44.596ZM109.054 44.428C109.417 44.428 109.742 44.34 110.03 44.164C110.323 43.988 110.553 43.732 110.718 43.396C110.889 43.0547 110.974 42.6467 110.974 42.172C110.974 41.6707 110.881 41.2253 110.694 40.836C110.507 40.4467 110.243 40.1427 109.902 39.924C109.566 39.7053 109.171 39.596 108.718 39.596C108.131 39.596 107.673 39.7853 107.342 40.164C107.011 40.5427 106.846 41.0627 106.846 41.724C106.846 42.2253 106.939 42.684 107.126 43.1C107.313 43.5107 107.574 43.836 107.91 44.076C108.246 44.3107 108.627 44.428 109.054 44.428ZM116.195 44.596C115.608 44.596 115.096 44.4787 114.659 44.244C114.227 44.0093 113.896 43.692 113.667 43.292C113.438 42.892 113.323 42.452 113.323 41.972C113.323 41.4547 113.454 41.004 113.715 40.62C113.976 40.2307 114.334 39.932 114.787 39.724C115.246 39.516 115.758 39.412 116.323 39.412C116.606 39.412 116.872 39.4387 117.123 39.492C117.374 39.5453 117.582 39.6227 117.747 39.724C117.79 39.7453 117.814 39.764 117.819 39.78C117.824 39.796 117.83 39.836 117.835 39.9L117.931 40.844C117.931 40.86 117.915 40.8707 117.883 40.876C117.856 40.8813 117.84 40.8733 117.835 40.852C117.59 39.9773 117.035 39.54 116.171 39.54C115.75 39.54 115.368 39.636 115.027 39.828C114.691 40.0147 114.424 40.284 114.227 40.636C114.035 40.9827 113.939 41.388 113.939 41.852C113.939 42.3053 114.032 42.732 114.219 43.132C114.406 43.532 114.683 43.8573 115.051 44.108C115.424 44.3533 115.878 44.476 116.411 44.476C116.79 44.476 117.056 44.404 117.211 44.26C117.366 44.1107 117.443 43.8573 117.443 43.5C117.443 43.2227 117.424 43.0307 117.387 42.924C117.355 42.812 117.278 42.7373 117.155 42.7C117.038 42.6627 116.83 42.644 116.531 42.644C116.499 42.644 116.483 42.6227 116.483 42.58C116.483 42.564 116.486 42.5507 116.491 42.54C116.502 42.524 116.512 42.516 116.523 42.516C116.939 42.5427 117.275 42.556 117.531 42.556C117.782 42.556 118.046 42.548 118.323 42.532C118.334 42.532 118.342 42.54 118.347 42.556C118.358 42.5667 118.363 42.5773 118.363 42.588C118.363 42.6253 118.35 42.644 118.323 42.644C118.19 42.6387 118.096 42.6573 118.043 42.7C117.99 42.7373 117.955 42.8173 117.939 42.94C117.923 43.0627 117.915 43.276 117.915 43.58C117.915 43.82 117.923 43.9907 117.939 44.092C117.96 44.1933 117.971 44.2573 117.971 44.284C117.971 44.316 117.966 44.3373 117.955 44.348C117.944 44.3587 117.92 44.3693 117.883 44.38C117.232 44.524 116.67 44.596 116.195 44.596ZM121.186 43.852C121.186 44.0173 121.202 44.1373 121.234 44.212C121.266 44.2867 121.327 44.3373 121.418 44.364C121.514 44.3907 121.663 44.404 121.866 44.404C121.882 44.404 121.89 44.42 121.89 44.452C121.89 44.484 121.882 44.5 121.866 44.5C121.706 44.5 121.578 44.4973 121.482 44.492L120.914 44.484L120.362 44.492C120.266 44.4973 120.135 44.5 119.97 44.5C119.954 44.5 119.946 44.484 119.946 44.452C119.946 44.42 119.954 44.404 119.97 44.404C120.173 44.404 120.319 44.3907 120.41 44.364C120.506 44.3373 120.57 44.2867 120.602 44.212C120.639 44.132 120.658 44.012 120.658 43.852V40.148C120.658 39.988 120.639 39.8707 120.602 39.796C120.57 39.7213 120.506 39.6707 120.41 39.644C120.319 39.612 120.173 39.596 119.97 39.596C119.954 39.596 119.946 39.58 119.946 39.548C119.946 39.516 119.954 39.5 119.97 39.5L120.362 39.508C120.586 39.5187 120.77 39.524 120.914 39.524C121.074 39.524 121.266 39.5187 121.49 39.508L121.866 39.5C121.882 39.5 121.89 39.516 121.89 39.548C121.89 39.58 121.882 39.596 121.866 39.596C121.669 39.596 121.522 39.612 121.426 39.644C121.33 39.676 121.266 39.732 121.234 39.812C121.202 39.8867 121.186 40.004 121.186 40.164V43.852ZM124.842 42.14H126.962L127.018 42.3H124.762L124.842 42.14ZM128.802 44.404C128.824 44.404 128.834 44.42 128.834 44.452C128.834 44.484 128.824 44.5 128.802 44.5C128.701 44.5 128.544 44.4947 128.33 44.484C128.117 44.4733 127.962 44.468 127.866 44.468C127.749 44.468 127.6 44.4733 127.418 44.484C127.248 44.4947 127.117 44.5 127.026 44.5C127.005 44.5 126.994 44.484 126.994 44.452C126.994 44.42 127.005 44.404 127.026 44.404C127.229 44.404 127.373 44.3853 127.458 44.348C127.549 44.3107 127.594 44.244 127.594 44.148C127.594 44.068 127.562 43.956 127.498 43.812L125.722 40.06L125.922 39.812L124.37 43.484C124.296 43.6653 124.258 43.8147 124.258 43.932C124.258 44.2467 124.52 44.404 125.042 44.404C125.069 44.404 125.082 44.42 125.082 44.452C125.082 44.484 125.069 44.5 125.042 44.5C124.946 44.5 124.808 44.4947 124.626 44.484C124.424 44.4733 124.248 44.468 124.098 44.468C123.96 44.468 123.8 44.4733 123.618 44.484C123.458 44.4947 123.325 44.5 123.218 44.5C123.192 44.5 123.178 44.484 123.178 44.452C123.178 44.42 123.192 44.404 123.218 44.404C123.368 44.404 123.493 44.3773 123.594 44.324C123.701 44.2653 123.8 44.1667 123.89 44.028C123.986 43.884 124.09 43.6787 124.202 43.412L125.89 39.428C125.901 39.412 125.92 39.404 125.946 39.404C125.973 39.404 125.989 39.412 125.994 39.428L127.882 43.404C128.064 43.7987 128.218 44.0653 128.346 44.204C128.474 44.3373 128.626 44.404 128.802 44.404ZM135.566 40.252C135.566 40.0173 135.502 39.8333 135.374 39.7C135.252 39.5667 135.084 39.5 134.87 39.5C134.449 39.5 134.238 39.756 134.238 40.268C134.238 40.7907 134.446 41.3373 134.862 41.908C135.284 42.4733 135.82 43.0013 136.47 43.492C136.801 43.7427 137.118 43.948 137.422 44.108C137.726 44.2627 137.985 44.3613 138.198 44.404C138.22 44.4093 138.228 44.428 138.222 44.46C138.222 44.4867 138.214 44.5 138.198 44.5H137.334C137.052 44.5 136.606 44.244 135.998 43.732C135.582 43.4067 135.193 43.0413 134.83 42.636C134.468 42.2307 134.193 41.8413 134.006 41.468C133.852 41.132 133.774 40.844 133.774 40.604C133.774 40.3747 133.83 40.164 133.942 39.972C134.054 39.7747 134.212 39.62 134.414 39.508C134.617 39.3907 134.846 39.332 135.102 39.332C135.358 39.332 135.577 39.3933 135.758 39.516C135.945 39.6387 136.038 39.8413 136.038 40.124C136.038 40.332 135.985 40.5213 135.878 40.692C135.772 40.8573 135.644 41.0013 135.494 41.124C135.345 41.2413 135.137 41.3933 134.87 41.58C134.604 41.756 134.388 41.9107 134.222 42.044C134.062 42.1773 133.926 42.3347 133.814 42.516C133.702 42.6973 133.646 42.9 133.646 43.124C133.646 43.348 133.702 43.556 133.814 43.748C133.932 43.9347 134.092 44.084 134.294 44.196C134.497 44.3027 134.726 44.356 134.982 44.356C135.313 44.356 135.609 44.2653 135.87 44.084C136.132 43.8973 136.334 43.652 136.478 43.348C136.628 43.044 136.702 42.7213 136.702 42.38C136.702 42.188 136.662 42.044 136.582 41.948C136.508 41.852 136.358 41.804 136.134 41.804C136.118 41.804 136.108 41.788 136.102 41.756C136.102 41.724 136.113 41.708 136.134 41.708L137.806 41.7C137.828 41.7 137.838 41.716 137.838 41.748C137.838 41.78 137.828 41.796 137.806 41.796C137.625 41.796 137.489 41.8147 137.398 41.852C137.308 41.884 137.244 41.932 137.206 41.996C137.169 42.0547 137.132 42.1453 137.094 42.268C136.657 43.82 135.833 44.596 134.622 44.596C134.292 44.596 134.014 44.54 133.79 44.428C133.572 44.316 133.406 44.1693 133.294 43.988C133.188 43.8067 133.134 43.612 133.134 43.404C133.134 43.1747 133.19 42.9667 133.302 42.78C133.414 42.5933 133.553 42.428 133.718 42.284C133.884 42.14 134.105 41.9693 134.382 41.772C134.644 41.5853 134.852 41.4253 135.006 41.292C135.166 41.1533 135.3 40.9987 135.406 40.828C135.513 40.652 135.566 40.46 135.566 40.252ZM145.284 39.412C145.62 39.412 145.902 39.436 146.132 39.484C146.361 39.532 146.59 39.6147 146.82 39.732C146.857 39.7533 146.878 39.772 146.884 39.788C146.889 39.804 146.897 39.844 146.908 39.908L147.004 40.86C147.004 40.876 146.988 40.8867 146.956 40.892C146.929 40.892 146.913 40.884 146.908 40.868C146.662 39.9773 146.113 39.532 145.26 39.532C144.812 39.532 144.414 39.6307 144.068 39.828C143.726 40.0253 143.462 40.308 143.276 40.676C143.089 41.0387 142.996 41.4627 142.996 41.948C142.996 42.412 143.1 42.8387 143.308 43.228C143.516 43.612 143.793 43.916 144.14 44.14C144.492 44.364 144.873 44.476 145.284 44.476C145.721 44.476 146.076 44.3693 146.348 44.156C146.62 43.9427 146.828 43.6173 146.972 43.18C146.972 43.1693 146.985 43.164 147.012 43.164C147.049 43.164 147.068 43.172 147.068 43.188L146.988 44.068C146.982 44.132 146.974 44.172 146.964 44.188C146.953 44.204 146.932 44.2227 146.9 44.244C146.622 44.3773 146.361 44.4707 146.116 44.524C145.876 44.5773 145.598 44.604 145.284 44.604C144.724 44.604 144.222 44.4947 143.78 44.276C143.342 44.052 143.001 43.74 142.756 43.34C142.51 42.94 142.388 42.4813 142.388 41.964C142.388 41.4627 142.513 41.02 142.764 40.636C143.014 40.2467 143.358 39.9453 143.796 39.732C144.238 39.5187 144.734 39.412 145.284 39.412ZM150.032 43.852C150.032 44.0173 150.048 44.1373 150.08 44.212C150.112 44.2867 150.173 44.3373 150.264 44.364C150.36 44.3907 150.509 44.404 150.712 44.404C150.728 44.404 150.736 44.42 150.736 44.452C150.736 44.484 150.728 44.5 150.712 44.5C150.552 44.5 150.424 44.4973 150.328 44.492L149.76 44.484L149.208 44.492C149.112 44.4973 148.981 44.5 148.816 44.5C148.8 44.5 148.792 44.484 148.792 44.452C148.792 44.42 148.8 44.404 148.816 44.404C149.019 44.404 149.165 44.3907 149.256 44.364C149.352 44.3373 149.416 44.2867 149.448 44.212C149.485 44.132 149.504 44.012 149.504 43.852V40.148C149.504 39.988 149.485 39.8707 149.448 39.796C149.416 39.7213 149.352 39.6707 149.256 39.644C149.165 39.612 149.019 39.596 148.816 39.596C148.8 39.596 148.792 39.58 148.792 39.548C148.792 39.516 148.8 39.5 148.816 39.5L149.208 39.508C149.432 39.5187 149.616 39.524 149.76 39.524C149.92 39.524 150.112 39.5187 150.336 39.508L150.712 39.5C150.728 39.5 150.736 39.516 150.736 39.548C150.736 39.58 150.728 39.596 150.712 39.596C150.515 39.596 150.368 39.612 150.272 39.644C150.176 39.676 150.112 39.732 150.08 39.812C150.048 39.8867 150.032 40.004 150.032 40.164V43.852ZM156.488 44.5C156.355 44.5 156.099 44.2733 155.72 43.82C155.347 43.3613 154.896 42.732 154.368 41.932L154.816 41.796C155.28 42.4627 155.667 42.9827 155.976 43.356C156.291 43.724 156.568 43.9907 156.808 44.156C157.048 44.3213 157.283 44.404 157.512 44.404C157.528 44.404 157.536 44.42 157.536 44.452C157.536 44.484 157.528 44.5 157.512 44.5H156.488ZM154.472 39.476C154.894 39.476 155.219 39.572 155.448 39.764C155.678 39.956 155.792 40.212 155.792 40.532C155.792 40.8147 155.71 41.0733 155.544 41.308C155.379 41.5373 155.155 41.7213 154.872 41.86C154.595 41.9933 154.296 42.06 153.976 42.06C153.944 42.06 153.824 42.052 153.616 42.036V43.852C153.616 44.0173 153.632 44.1373 153.664 44.212C153.696 44.2867 153.758 44.3373 153.848 44.364C153.944 44.3907 154.094 44.404 154.296 44.404C154.312 44.404 154.32 44.42 154.32 44.452C154.32 44.484 154.312 44.5 154.296 44.5C154.131 44.5 154 44.4973 153.904 44.492L153.352 44.484L152.808 44.492C152.712 44.4973 152.576 44.5 152.4 44.5C152.39 44.5 152.384 44.484 152.384 44.452C152.384 44.42 152.39 44.404 152.4 44.404C152.603 44.404 152.752 44.3907 152.848 44.364C152.944 44.332 153.011 44.2787 153.048 44.204C153.086 44.1293 153.104 44.012 153.104 43.852V40.148C153.104 39.988 153.086 39.8707 153.048 39.796C153.016 39.7213 152.952 39.6707 152.856 39.644C152.766 39.612 152.619 39.596 152.416 39.596C152.4 39.596 152.392 39.58 152.392 39.548C152.392 39.516 152.4 39.5 152.416 39.5L152.808 39.508C153.032 39.5187 153.214 39.524 153.352 39.524C153.47 39.524 153.579 39.5213 153.68 39.516C153.782 39.5107 153.867 39.5053 153.936 39.5C154.139 39.484 154.318 39.476 154.472 39.476ZM155.248 40.764C155.248 40.348 155.155 40.0493 154.968 39.868C154.787 39.6867 154.52 39.596 154.168 39.596C153.96 39.596 153.816 39.6333 153.736 39.708C153.656 39.7827 153.616 39.9347 153.616 40.164V41.844C153.744 41.8653 153.902 41.876 154.088 41.876C154.504 41.876 154.8 41.7853 154.976 41.604C155.158 41.4227 155.248 41.1427 155.248 40.764ZM162.553 40.38C162.553 39.8573 162.321 39.596 161.857 39.596C161.841 39.596 161.833 39.58 161.833 39.548C161.833 39.516 161.841 39.5 161.857 39.5L162.201 39.508C162.393 39.5187 162.545 39.524 162.657 39.524C162.748 39.524 162.879 39.5187 163.049 39.508L163.385 39.5C163.396 39.5 163.401 39.516 163.401 39.548C163.401 39.58 163.396 39.596 163.385 39.596C162.959 39.596 162.745 39.8573 162.745 40.38V42.652C162.745 43.2653 162.575 43.7453 162.233 44.092C161.892 44.4333 161.433 44.604 160.857 44.604C160.463 44.604 160.116 44.5267 159.817 44.372C159.524 44.2173 159.295 43.9987 159.129 43.716C158.969 43.428 158.889 43.092 158.889 42.708V40.148C158.889 39.988 158.873 39.8707 158.841 39.796C158.809 39.7213 158.745 39.6707 158.649 39.644C158.559 39.612 158.412 39.596 158.209 39.596C158.199 39.596 158.193 39.58 158.193 39.548C158.193 39.516 158.199 39.5 158.209 39.5L158.601 39.508C158.825 39.5187 159.007 39.524 159.145 39.524C159.289 39.524 159.479 39.5187 159.713 39.508L160.081 39.5C160.097 39.5 160.105 39.516 160.105 39.548C160.105 39.58 160.097 39.596 160.081 39.596C159.884 39.596 159.737 39.612 159.641 39.644C159.551 39.676 159.489 39.732 159.457 39.812C159.425 39.8867 159.409 40.004 159.409 40.164V42.428C159.409 43.0573 159.551 43.5373 159.833 43.868C160.116 44.1987 160.516 44.364 161.033 44.364C161.513 44.364 161.887 44.2147 162.153 43.916C162.42 43.612 162.553 43.1933 162.553 42.66V40.38ZM167.787 44.596C167.2 44.596 166.688 44.4787 166.251 44.244C165.819 44.0093 165.488 43.692 165.259 43.292C165.03 42.892 164.915 42.452 164.915 41.972C164.915 41.4547 165.046 41.004 165.307 40.62C165.568 40.2307 165.926 39.932 166.379 39.724C166.838 39.516 167.35 39.412 167.915 39.412C168.198 39.412 168.464 39.4387 168.715 39.492C168.966 39.5453 169.174 39.6227 169.339 39.724C169.382 39.7453 169.406 39.764 169.411 39.78C169.416 39.796 169.422 39.836 169.427 39.9L169.523 40.844C169.523 40.86 169.507 40.8707 169.475 40.876C169.448 40.8813 169.432 40.8733 169.427 40.852C169.182 39.9773 168.627 39.54 167.763 39.54C167.342 39.54 166.96 39.636 166.619 39.828C166.283 40.0147 166.016 40.284 165.819 40.636C165.627 40.9827 165.531 41.388 165.531 41.852C165.531 42.3053 165.624 42.732 165.811 43.132C165.998 43.532 166.275 43.8573 166.643 44.108C167.016 44.3533 167.47 44.476 168.003 44.476C168.382 44.476 168.648 44.404 168.803 44.26C168.958 44.1107 169.035 43.8573 169.035 43.5C169.035 43.2227 169.016 43.0307 168.979 42.924C168.947 42.812 168.87 42.7373 168.747 42.7C168.63 42.6627 168.422 42.644 168.123 42.644C168.091 42.644 168.075 42.6227 168.075 42.58C168.075 42.564 168.078 42.5507 168.083 42.54C168.094 42.524 168.104 42.516 168.115 42.516C168.531 42.5427 168.867 42.556 169.123 42.556C169.374 42.556 169.638 42.548 169.915 42.532C169.926 42.532 169.934 42.54 169.939 42.556C169.95 42.5667 169.955 42.5773 169.955 42.588C169.955 42.6253 169.942 42.644 169.915 42.644C169.782 42.6387 169.688 42.6573 169.635 42.7C169.582 42.7373 169.547 42.8173 169.531 42.94C169.515 43.0627 169.507 43.276 169.507 43.58C169.507 43.82 169.515 43.9907 169.531 44.092C169.552 44.1933 169.563 44.2573 169.563 44.284C169.563 44.316 169.558 44.3373 169.547 44.348C169.536 44.3587 169.512 44.3693 169.475 44.38C168.824 44.524 168.262 44.596 167.787 44.596ZM172.778 43.852C172.778 44.0173 172.794 44.1373 172.826 44.212C172.858 44.2867 172.92 44.3373 173.01 44.364C173.106 44.3907 173.256 44.404 173.458 44.404C173.474 44.404 173.482 44.42 173.482 44.452C173.482 44.484 173.474 44.5 173.458 44.5C173.298 44.5 173.17 44.4973 173.074 44.492L172.506 44.484L171.954 44.492C171.858 44.4973 171.728 44.5 171.562 44.5C171.546 44.5 171.538 44.484 171.538 44.452C171.538 44.42 171.546 44.404 171.562 44.404C171.765 44.404 171.912 44.3907 172.002 44.364C172.098 44.3373 172.162 44.2867 172.194 44.212C172.232 44.132 172.25 44.012 172.25 43.852V40.148C172.25 39.988 172.232 39.8707 172.194 39.796C172.162 39.7213 172.098 39.6707 172.002 39.644C171.912 39.612 171.765 39.596 171.562 39.596C171.546 39.596 171.538 39.58 171.538 39.548C171.538 39.516 171.546 39.5 171.562 39.5L171.954 39.508C172.178 39.5187 172.362 39.524 172.506 39.524C172.666 39.524 172.858 39.5187 173.082 39.508L173.458 39.5C173.474 39.5 173.482 39.516 173.482 39.548C173.482 39.58 173.474 39.596 173.458 39.596C173.261 39.596 173.114 39.612 173.018 39.644C172.922 39.676 172.858 39.732 172.826 39.812C172.794 39.8867 172.778 40.004 172.778 40.164V43.852ZM176.434 42.14H178.554L178.61 42.3H176.354L176.434 42.14ZM180.394 44.404C180.416 44.404 180.426 44.42 180.426 44.452C180.426 44.484 180.416 44.5 180.394 44.5C180.293 44.5 180.136 44.4947 179.922 44.484C179.709 44.4733 179.554 44.468 179.458 44.468C179.341 44.468 179.192 44.4733 179.01 44.484C178.84 44.4947 178.709 44.5 178.618 44.5C178.597 44.5 178.586 44.484 178.586 44.452C178.586 44.42 178.597 44.404 178.618 44.404C178.821 44.404 178.965 44.3853 179.05 44.348C179.141 44.3107 179.186 44.244 179.186 44.148C179.186 44.068 179.154 43.956 179.09 43.812L177.314 40.06L177.514 39.812L175.962 43.484C175.888 43.6653 175.85 43.8147 175.85 43.932C175.85 44.2467 176.112 44.404 176.634 44.404C176.661 44.404 176.674 44.42 176.674 44.452C176.674 44.484 176.661 44.5 176.634 44.5C176.538 44.5 176.4 44.4947 176.218 44.484C176.016 44.4733 175.84 44.468 175.69 44.468C175.552 44.468 175.392 44.4733 175.21 44.484C175.05 44.4947 174.917 44.5 174.81 44.5C174.784 44.5 174.77 44.484 174.77 44.452C174.77 44.42 174.784 44.404 174.81 44.404C174.96 44.404 175.085 44.3773 175.186 44.324C175.293 44.2653 175.392 44.1667 175.482 44.028C175.578 43.884 175.682 43.6787 175.794 43.412L177.482 39.428C177.493 39.412 177.512 39.404 177.538 39.404C177.565 39.404 177.581 39.412 177.586 39.428L179.474 43.404C179.656 43.7987 179.81 44.0653 179.938 44.204C180.066 44.3373 180.218 44.404 180.394 44.404ZM187.479 44.596C186.892 44.596 186.38 44.4787 185.943 44.244C185.511 44.0093 185.18 43.692 184.951 43.292C184.721 42.892 184.607 42.452 184.607 41.972C184.607 41.4547 184.737 41.004 184.999 40.62C185.26 40.2307 185.617 39.932 186.071 39.724C186.529 39.516 187.041 39.412 187.607 39.412C187.889 39.412 188.156 39.4387 188.407 39.492C188.657 39.5453 188.865 39.6227 189.031 39.724C189.073 39.7453 189.097 39.764 189.103 39.78C189.108 39.796 189.113 39.836 189.119 39.9L189.215 40.844C189.215 40.86 189.199 40.8707 189.167 40.876C189.14 40.8813 189.124 40.8733 189.119 40.852C188.873 39.9773 188.319 39.54 187.455 39.54C187.033 39.54 186.652 39.636 186.311 39.828C185.975 40.0147 185.708 40.284 185.511 40.636C185.319 40.9827 185.223 41.388 185.223 41.852C185.223 42.3053 185.316 42.732 185.503 43.132C185.689 43.532 185.967 43.8573 186.335 44.108C186.708 44.3533 187.161 44.476 187.695 44.476C188.073 44.476 188.34 44.404 188.495 44.26C188.649 44.1107 188.727 43.8573 188.727 43.5C188.727 43.2227 188.708 43.0307 188.671 42.924C188.639 42.812 188.561 42.7373 188.439 42.7C188.321 42.6627 188.113 42.644 187.815 42.644C187.783 42.644 187.767 42.6227 187.767 42.58C187.767 42.564 187.769 42.5507 187.775 42.54C187.785 42.524 187.796 42.516 187.807 42.516C188.223 42.5427 188.559 42.556 188.815 42.556C189.065 42.556 189.329 42.548 189.607 42.532C189.617 42.532 189.625 42.54 189.631 42.556C189.641 42.5667 189.647 42.5773 189.647 42.588C189.647 42.6253 189.633 42.644 189.607 42.644C189.473 42.6387 189.38 42.6573 189.327 42.7C189.273 42.7373 189.239 42.8173 189.223 42.94C189.207 43.0627 189.199 43.276 189.199 43.58C189.199 43.82 189.207 43.9907 189.223 44.092C189.244 44.1933 189.255 44.2573 189.255 44.284C189.255 44.316 189.249 44.3373 189.239 44.348C189.228 44.3587 189.204 44.3693 189.167 44.38C188.516 44.524 187.953 44.596 187.479 44.596ZM191.222 44.5C191.211 44.5 191.206 44.484 191.206 44.452C191.206 44.42 191.211 44.404 191.222 44.404C191.424 44.404 191.571 44.3907 191.662 44.364C191.758 44.3373 191.822 44.2867 191.854 44.212C191.891 44.132 191.91 44.012 191.91 43.852V40.148C191.91 39.988 191.891 39.8707 191.854 39.796C191.822 39.7213 191.758 39.6707 191.662 39.644C191.571 39.612 191.424 39.596 191.222 39.596C191.211 39.596 191.206 39.58 191.206 39.548C191.206 39.516 191.211 39.5 191.222 39.5H194.438C194.486 39.5 194.51 39.524 194.51 39.572L194.526 40.556C194.526 40.572 194.51 40.5827 194.478 40.588C194.451 40.588 194.438 40.58 194.438 40.564C194.422 40.2813 194.336 40.0627 194.182 39.908C194.027 39.748 193.822 39.668 193.566 39.668H193.078C192.891 39.668 192.752 39.684 192.662 39.716C192.571 39.7427 192.507 39.7907 192.47 39.86C192.438 39.9293 192.422 40.0387 192.422 40.188V43.82C192.422 43.964 192.438 44.0733 192.47 44.148C192.507 44.2173 192.568 44.2653 192.654 44.292C192.739 44.3187 192.872 44.332 193.054 44.332H193.694C193.95 44.332 194.163 44.2413 194.334 44.06C194.504 43.8787 194.619 43.628 194.678 43.308C194.678 43.2973 194.688 43.292 194.71 43.292C194.726 43.292 194.739 43.2973 194.75 43.308C194.766 43.3133 194.774 43.3187 194.774 43.324C194.726 43.66 194.702 44.012 194.702 44.38C194.702 44.4227 194.691 44.4547 194.67 44.476C194.654 44.492 194.622 44.5 194.574 44.5H191.222ZM194.126 42.636C194.126 42.4013 194.067 42.2333 193.95 42.132C193.838 42.0307 193.648 41.98 193.382 41.98H192.182V41.812H193.406C193.662 41.812 193.843 41.7693 193.95 41.684C194.062 41.5987 194.118 41.4547 194.118 41.252C194.118 41.2413 194.134 41.236 194.166 41.236C194.198 41.236 194.214 41.2413 194.214 41.252L194.206 41.9C194.206 42.0547 194.208 42.172 194.214 42.252L194.222 42.636C194.222 42.6467 194.206 42.652 194.174 42.652C194.142 42.652 194.126 42.6467 194.126 42.636ZM200.567 44.5C200.433 44.5 200.177 44.2733 199.799 43.82C199.425 43.3613 198.975 42.732 198.447 41.932L198.895 41.796C199.359 42.4627 199.745 42.9827 200.055 43.356C200.369 43.724 200.647 43.9907 200.887 44.156C201.127 44.3213 201.361 44.404 201.591 44.404C201.607 44.404 201.615 44.42 201.615 44.452C201.615 44.484 201.607 44.5 201.591 44.5H200.567ZM198.551 39.476C198.972 39.476 199.297 39.572 199.527 39.764C199.756 39.956 199.871 40.212 199.871 40.532C199.871 40.8147 199.788 41.0733 199.623 41.308C199.457 41.5373 199.233 41.7213 198.951 41.86C198.673 41.9933 198.375 42.06 198.055 42.06C198.023 42.06 197.903 42.052 197.695 42.036V43.852C197.695 44.0173 197.711 44.1373 197.743 44.212C197.775 44.2867 197.836 44.3373 197.927 44.364C198.023 44.3907 198.172 44.404 198.375 44.404C198.391 44.404 198.399 44.42 198.399 44.452C198.399 44.484 198.391 44.5 198.375 44.5C198.209 44.5 198.079 44.4973 197.983 44.492L197.431 44.484L196.887 44.492C196.791 44.4973 196.655 44.5 196.479 44.5C196.468 44.5 196.463 44.484 196.463 44.452C196.463 44.42 196.468 44.404 196.479 44.404C196.681 44.404 196.831 44.3907 196.927 44.364C197.023 44.332 197.089 44.2787 197.127 44.204C197.164 44.1293 197.183 44.012 197.183 43.852V40.148C197.183 39.988 197.164 39.8707 197.127 39.796C197.095 39.7213 197.031 39.6707 196.935 39.644C196.844 39.612 196.697 39.596 196.495 39.596C196.479 39.596 196.471 39.58 196.471 39.548C196.471 39.516 196.479 39.5 196.495 39.5L196.887 39.508C197.111 39.5187 197.292 39.524 197.431 39.524C197.548 39.524 197.657 39.5213 197.759 39.516C197.86 39.5107 197.945 39.5053 198.015 39.5C198.217 39.484 198.396 39.476 198.551 39.476ZM199.327 40.764C199.327 40.348 199.233 40.0493 199.047 39.868C198.865 39.6867 198.599 39.596 198.247 39.596C198.039 39.596 197.895 39.6333 197.815 39.708C197.735 39.7827 197.695 39.9347 197.695 40.164V41.844C197.823 41.8653 197.98 41.876 198.167 41.876C198.583 41.876 198.879 41.7853 199.055 41.604C199.236 41.4227 199.327 41.1427 199.327 40.764ZM204.109 42.14H206.229L206.285 42.3H204.029L204.109 42.14ZM208.069 44.404C208.091 44.404 208.101 44.42 208.101 44.452C208.101 44.484 208.091 44.5 208.069 44.5C207.968 44.5 207.811 44.4947 207.597 44.484C207.384 44.4733 207.229 44.468 207.133 44.468C207.016 44.468 206.867 44.4733 206.685 44.484C206.515 44.4947 206.384 44.5 206.293 44.5C206.272 44.5 206.261 44.484 206.261 44.452C206.261 44.42 206.272 44.404 206.293 44.404C206.496 44.404 206.64 44.3853 206.725 44.348C206.816 44.3107 206.861 44.244 206.861 44.148C206.861 44.068 206.829 43.956 206.765 43.812L204.989 40.06L205.189 39.812L203.637 43.484C203.563 43.6653 203.525 43.8147 203.525 43.932C203.525 44.2467 203.787 44.404 204.309 44.404C204.336 44.404 204.349 44.42 204.349 44.452C204.349 44.484 204.336 44.5 204.309 44.5C204.213 44.5 204.075 44.4947 203.893 44.484C203.691 44.4733 203.515 44.468 203.365 44.468C203.227 44.468 203.067 44.4733 202.885 44.484C202.725 44.4947 202.592 44.5 202.485 44.5C202.459 44.5 202.445 44.484 202.445 44.452C202.445 44.42 202.459 44.404 202.485 44.404C202.635 44.404 202.76 44.3773 202.861 44.324C202.968 44.2653 203.067 44.1667 203.157 44.028C203.253 43.884 203.357 43.6787 203.469 43.412L205.157 39.428C205.168 39.412 205.187 39.404 205.213 39.404C205.24 39.404 205.256 39.412 205.261 39.428L207.149 43.404C207.331 43.7987 207.485 44.0653 207.613 44.204C207.741 44.3373 207.893 44.404 208.069 44.404ZM210.535 43.82C210.535 43.9747 210.551 44.0867 210.583 44.156C210.615 44.2253 210.673 44.2733 210.759 44.3C210.844 44.3213 210.983 44.332 211.175 44.332H212.047C212.351 44.332 212.593 44.2387 212.775 44.052C212.956 43.8653 213.076 43.6067 213.135 43.276C213.135 43.26 213.148 43.2547 213.175 43.26C213.207 43.26 213.223 43.268 213.223 43.284C213.175 43.7267 213.151 44.092 213.151 44.38C213.151 44.4227 213.143 44.4547 213.127 44.476C213.111 44.492 213.079 44.5 213.031 44.5H209.335C209.324 44.5 209.319 44.484 209.319 44.452C209.319 44.42 209.324 44.404 209.335 44.404C209.537 44.404 209.684 44.3907 209.775 44.364C209.871 44.3373 209.935 44.2867 209.967 44.212C209.999 44.132 210.015 44.012 210.015 43.852V40.148C210.015 39.988 209.999 39.8707 209.967 39.796C209.935 39.7213 209.871 39.6707 209.775 39.644C209.684 39.612 209.537 39.596 209.335 39.596C209.324 39.596 209.319 39.58 209.319 39.548C209.319 39.516 209.324 39.5 209.335 39.5L209.727 39.508C209.951 39.5187 210.132 39.524 210.271 39.524C210.42 39.524 210.607 39.5187 210.831 39.508L211.215 39.5C211.231 39.5 211.239 39.516 211.239 39.548C211.239 39.58 211.231 39.596 211.215 39.596C211.017 39.596 210.871 39.612 210.775 39.644C210.679 39.6707 210.615 39.724 210.583 39.804C210.551 39.8787 210.535 39.996 210.535 40.156V43.82Z" fill="#7C7976"/>
</svg>
